<svg xmlns="http://www.w3.org/2000/svg" version="1.1" xmlns:xlink="http://www.w3.org/1999/xlink" xmlns:svgjs="http://svgjs.com/svgjs" width="1000" height="450" preserveAspectRatio="none" viewBox="0 0 1000 450"><g mask="url(&quot;#SvgjsMask1531&quot;)" fill="none"><g transform="translate(0, 0)" stroke-linecap="round"><path d="M201 177.26 L201 272.74" stroke-width="17.25" stroke="rgba(255, 32, 168, 1)"></path><path d="M224 158.14 L224 291.86" stroke-width="17.25" stroke="rgba(255, 32, 168, 1)"></path><path d="M247 210.07 L247 239.93" stroke-width="17.25" stroke="rgba(255, 217, 0, 1)"></path><path d="M270 192.18 L270 257.82" stroke-width="17.25" stroke="rgba(255, 32, 168, 1)"></path><path d="M293 122.83 L293 327.17" stroke-width="17.25" stroke="rgba(255, 32, 168, 1)"></path><path d="M316 99.4 L316 350.6" stroke-width="17.25" stroke="rgba(255, 32, 168, 1)"></path><path d="M339 202.43 L339 247.57" stroke-width="17.25" stroke="rgba(255, 32, 168, 1)"></path><path d="M362 169.17 L362 280.83" stroke-width="17.25" stroke="rgba(255, 32, 168, 1)"></path><path d="M385 139.76 L385 310.24" stroke-width="17.25" stroke="rgba(255, 217, 0, 1)"></path><path d="M408 185.47 L408 264.52" stroke-width="17.25" stroke="rgba(255, 32, 168, 1)"></path><path d="M431 105.39 L431 344.61" stroke-width="17.25" stroke="rgba(255, 32, 168, 1)"></path><path d="M454 94.43 L454 355.57" stroke-width="17.25" stroke="rgba(255, 217, 0, 1)"></path><path d="M477 200.46 L477 249.54" stroke-width="17.25" stroke="rgba(255, 32, 168, 1)"></path><path d="M500 143.22 L500 306.78" stroke-width="17.25" stroke="rgba(255, 32, 168, 1)"></path><path d="M523 140.59 L523 309.4" stroke-width="17.25" stroke="rgba(255, 217, 0, 1)"></path><path d="M546 122.11 L546 327.89" stroke-width="17.25" stroke="rgba(255, 217, 0, 1)"></path><path d="M569 105.25 L569 344.75" stroke-width="17.25" stroke="rgba(255, 32, 168, 1)"></path><path d="M592 100.78 L592 349.22" stroke-width="17.25" stroke="rgba(255, 32, 168, 1)"></path><path d="M615 94.17 L615 355.83" stroke-width="17.25" stroke="rgba(255, 32, 168, 1)"></path><path d="M638 204.65 L638 245.35" stroke-width="17.25" stroke="rgba(255, 32, 168, 1)"></path><path d="M661 94.97 L661 355.02" stroke-width="17.25" stroke="rgba(255, 217, 0, 1)"></path><path d="M684 163.88 L684 286.13" stroke-width="17.25" stroke="rgba(255, 32, 168, 1)"></path><path d="M707 189.66 L707 260.34" stroke-width="17.25" stroke="rgba(255, 32, 168, 1)"></path><path d="M730 146.97 L730 303.03" stroke-width="17.25" stroke="rgba(255, 217, 0, 1)"></path><path d="M753 187.72 L753 262.27" stroke-width="17.25" stroke="rgba(255, 32, 168, 1)"></path><path d="M776 130.6 L776 319.4" stroke-width="17.25" stroke="rgba(255, 32, 168, 1)"></path><path d="M799 170.1 L799 279.9" stroke-width="17.25" stroke="rgba(255, 32, 168, 1)"></path></g></g><defs><mask id="SvgjsMask1531"><rect width="1000" height="450" fill="#ffffff"></rect></mask></defs></svg>